<svg width="17" height="18" viewBox="0 0 17 18" fill="none" xmlns="http://www.w3.org/2000/svg">
<path d="M16.9906 13.1589C16.9921 13.1464 16.9975 13.135 16.9975 13.1227V0.812895C16.9975 0.580353 16.8998 0.359197 16.7268 0.205701C16.5523 0.0476077 16.3271 -0.0231183 16.0982 0.0066611L5.73748 1.32659C5.33885 1.37651 5.03966 1.72379 5.03966 2.1326V11.8703C4.63283 11.6809 4.18243 11.565 3.69946 11.565C3.02299 11.565 2.34825 11.761 1.74794 12.1332C0.125804 13.1431 -0.474514 15.1508 0.404932 16.6098C0.931262 17.4786 1.8957 18 2.99021 18C3.66688 18 4.34335 17.8016 4.94324 17.4292C5.72561 16.9446 6.21031 16.2038 6.46657 15.3632C6.62814 14.8351 6.62814 14.5141 6.61886 13.985C6.62814 13.9366 6.63849 13.7258 6.63849 13.6752V3.65595L15.3976 2.57864V11.5131C15.0177 11.3544 14.6068 11.2488 14.1622 11.2488C13.4855 11.2488 12.8121 11.4446 12.2116 11.8192C10.589 12.8256 9.9891 14.8348 10.8681 16.2938C11.3951 17.1633 12.3587 17.6827 13.4543 17.6827C14.1314 17.6827 14.8074 17.4859 15.406 17.1123C16.1886 16.6286 16.8681 15.8268 16.9468 14.9509C17.0035 14.2898 17.0089 13.7385 16.9906 13.1589Z" fill="#C4C4C4"/>
</svg>
