<svg width="15" height="20" viewBox="0 0 15 20" fill="none" xmlns="http://www.w3.org/2000/svg">
<path d="M13.9817 4.35131C13.4191 4.35131 12.9628 4.78841 12.9628 5.32847V9.08176C12.9628 12.7642 10.2192 14.4123 7.50027 14.4123C4.78136 14.4123 2.03774 12.764 2.03774 9.09572L2.09265 5.34216C2.09265 5.33768 2.09128 5.33347 2.09128 5.32873C2.09128 4.79552 1.64595 4.35947 1.08806 4.35157C0.533734 4.34578 0.0631477 4.77524 0.0549111 5.31451L0 9.0815C0 13.031 2.61897 15.8777 6.4814 16.304V18.0457H5.177C4.61443 18.0457 4.15812 18.4828 4.15812 19.0228C4.15812 19.5621 4.61416 20 5.177 20H9.8241C10.3867 20 10.843 19.5624 10.843 19.0228C10.843 18.4828 10.3869 18.0457 9.8241 18.0457H8.5186V16.3037C12.381 15.8774 15 13.031 15 9.08124V5.32847C15.0003 4.78815 14.5442 4.35131 13.9817 4.35131Z" fill="#C4C4C4"/>
<path d="M7.49977 12.7273C9.57108 12.7273 11.25 11.3404 11.25 9.01648V4.20848C11.25 1.8841 9.57108 0 7.49977 0C5.42847 0 3.75 1.8841 3.75 4.20848V9.01626C3.75 11.3404 5.42892 12.7273 7.49977 12.7273Z" fill="#C4C4C4"/>
</svg>
