<svg width="97" height="40" viewBox="0 0 97 40" fill="none" xmlns="http://www.w3.org/2000/svg">
<path d="M50.9583 4.18428e-06L25.4789 39.7258L1.12592e-06 4.18428e-06H50.9583Z" transform="translate(-6.10352e-05 0.0911255)" fill="#040086"/>
<path d="M19.6604 39.8532C30.5186 39.8532 39.3208 30.9317 39.3208 19.9266C39.3208 8.92143 30.5186 -5.61073e-06 19.6604 -5.61073e-06C8.80227 -5.61073e-06 0 8.92143 0 19.9266C0 30.9317 8.80227 39.8532 19.6604 39.8532Z" transform="translate(31.1483 0.146851)" fill="#E205FF"/>
<path d="M38.8231 7.37748L31.5434 7.60778e-07L19.4114 12.2967L7.27893 7.60778e-07L-2.4395e-06 7.37748L12.1321 19.6742L-2.4395e-06 31.9705L7.27893 39.3483L19.4114 27.052L31.5434 39.3483L38.8231 31.9709L26.6903 19.6742L38.8231 7.37748Z" transform="translate(58.1768)" fill="#4CA4FF"/>
</svg>
